<svg width="3211" height="1650" xmlns="http://www.w3.org/2000/svg" xmlns:xlink="http://www.w3.org/1999/xlink" xml:space="preserve" overflow="hidden"><defs><clipPath id="clip0"><rect x="452" y="371" width="3211" height="1650"/></clipPath></defs><g clip-path="url(#clip0)" transform="translate(-452 -371)"><g><rect x="722.5" y="635.5" width="2890" height="1255" stroke="#C3C3C3" stroke-width="3.4375" stroke-linejoin="round" stroke-miterlimit="10" fill="none"/></g><g><path d="M833.027 860.028 934.031 860.028 934.031 1890 833.027 1890ZM1796.06 894.029 1897.06 894.029 1897.06 1890 1796.06 1890ZM2760.09 804.026 2861.09 804.026 2861.09 1890 2760.09 1890Z" fill="#5F79FE"/></g><g><path d="M961.032 1139.04 1062.03 1139.04 1062.03 1890 961.032 1890ZM1925.06 1006.03 2026.07 1006.03 2026.07 1890 1925.06 1890ZM2888.09 1006.03 2989.1 1006.03 2989.1 1890 2888.09 1890Z" fill="#B2C7FF"/></g><g><path d="M1089.04 949.031 1190.04 949.031 1190.04 1890 1089.04 1890ZM2053.07 1039.03 2154.07 1039.03 2154.07 1890 2053.07 1890ZM3016.1 837.027 3117.1 837.027 3117.1 1890 3016.1 1890Z" fill="#EAD6A9"/></g><g><path d="M1218.04 1196.04 1319.04 1196.04 1319.04 1890 1218.04 1890ZM2181.07 1230.04 2282.07 1230.04 2282.07 1890 2181.07 1890ZM3144.1 1106.04 3245.11 1106.04 3245.11 1890 3144.1 1890Z" fill="#F7EED1"/></g><g><path d="M1346.04 1688.06 1447.05 1688.06 1447.05 1890 1346.04 1890ZM2309.08 1576.05 2410.08 1576.05 2410.08 1890 2309.08 1890ZM3273.11 1363.04 3374.11 1363.04 3374.11 1890 3273.11 1890Z" fill="#C3C3C3"/></g><g><path d="M1474.05 1756.06 1575.05 1756.06 1575.05 1890 1474.05 1890ZM2438.08 1632.05 2539.08 1632.05 2539.08 1890 2438.08 1890ZM3401.11 1509.05 3502.11 1509.05 3502.11 1890 3401.11 1890Z" fill="#EBEBEB"/></g><g><path d="M722.5 1890.5 3612.5 1890.5" stroke="#D9D9D9" stroke-width="3.4375" stroke-linejoin="round" stroke-miterlimit="10" fill="none" fill-rule="evenodd"/></g><g><rect x="1074" y="1924" width="260" height="67" fill="#FFFFFF"/></g><g><rect x="2071" y="1924" width="193" height="67" fill="#FFFFFF"/></g><g><rect x="3022" y="1924" width="218" height="67" fill="#FFFFFF"/></g><g><text fill="#404040" font-family="Aptos,Aptos_MSFontService,sans-serif" font-weight="400" font-size="55" transform="matrix(1 0 0 1 831.703 824)">3.75</text></g><g><text fill="#404040" font-family="Aptos,Aptos_MSFontService,sans-serif" font-weight="400" font-size="55" transform="matrix(1 0 0 1 1780.43 858)">3.712</text></g><g><text fill="#404040" font-family="Aptos,Aptos_MSFontService,sans-serif" font-weight="400" font-size="55" transform="matrix(1 0 0 1 2743.81 769)">3.812</text></g><g><text fill="#404040" font-family="Aptos,Aptos_MSFontService,sans-serif" font-weight="400" font-size="55" transform="matrix(1 0 0 1 945.297 1104)">3.438</text></g><g><text fill="#404040" font-family="Aptos,Aptos_MSFontService,sans-serif" font-weight="400" font-size="55" transform="matrix(1 0 0 1 1908.68 970)">3.587</text></g><g><text fill="#404040" font-family="Aptos,Aptos_MSFontService,sans-serif" font-weight="400" font-size="55" transform="matrix(1 0 0 1 2872.06 970)">3.587</text></g><g><text fill="#404040" font-family="Aptos,Aptos_MSFontService,sans-serif" font-weight="400" font-size="55" transform="matrix(1 0 0 1 1088.2 914)">3.65</text></g><g><text fill="#404040" font-family="Aptos,Aptos_MSFontService,sans-serif" font-weight="400" font-size="55" transform="matrix(1 0 0 1 2051.58 1003)">3.55</text></g><g><text fill="#404040" font-family="Aptos,Aptos_MSFontService,sans-serif" font-weight="400" font-size="55" transform="matrix(1 0 0 1 3000.31 802)">3.775</text></g><g><text fill="#404040" font-family="Aptos,Aptos_MSFontService,sans-serif" font-weight="400" font-size="55" transform="matrix(1 0 0 1 1201.79 1160)">3.375</text></g><g><text fill="#404040" font-family="Aptos,Aptos_MSFontService,sans-serif" font-weight="400" font-size="55" transform="matrix(1 0 0 1 2165.18 1194)">3.337</text></g><g><text fill="#404040" font-family="Aptos,Aptos_MSFontService,sans-serif" font-weight="400" font-size="55" transform="matrix(1 0 0 1 3128.56 1071)">3.475</text></g><g><text fill="#404040" font-family="Aptos,Aptos_MSFontService,sans-serif" font-weight="400" font-size="55" transform="matrix(1 0 0 1 1330.04 1653)">2.825</text></g><g><text fill="#404040" font-family="Aptos,Aptos_MSFontService,sans-serif" font-weight="400" font-size="55" transform="matrix(1 0 0 1 2308.08 1541)">2.95</text></g><g><text fill="#404040" font-family="Aptos,Aptos_MSFontService,sans-serif" font-weight="400" font-size="55" transform="matrix(1 0 0 1 3256.81 1328)">3.188</text></g><g><text fill="#404040" font-family="Aptos,Aptos_MSFontService,sans-serif" font-weight="400" font-size="55" transform="matrix(1 0 0 1 1472.95 1720)">2.75</text></g><g><text fill="#404040" font-family="Aptos,Aptos_MSFontService,sans-serif" font-weight="400" font-size="55" transform="matrix(1 0 0 1 2421.67 1597)">2.888</text></g><g><text fill="#404040" font-family="Aptos,Aptos_MSFontService,sans-serif" font-weight="400" font-size="55" transform="matrix(1 0 0 1 3385.06 1474)">3.025</text></g><g><text fill="#595959" font-family="Aptos,Aptos_MSFontService,sans-serif" font-weight="400" font-size="55" transform="matrix(1 0 0 1 597.488 1906)">2.6</text></g><g><text fill="#595959" font-family="Aptos,Aptos_MSFontService,sans-serif" font-weight="400" font-size="55" transform="matrix(1 0 0 1 597.488 1726)">2.8</text></g><g><text fill="#595959" font-family="Aptos,Aptos_MSFontService,sans-serif" font-weight="400" font-size="55" transform="matrix(1 0 0 1 642.474 1547)">3</text></g><g><text fill="#595959" font-family="Aptos,Aptos_MSFontService,sans-serif" font-weight="400" font-size="55" transform="matrix(1 0 0 1 597.488 1368)">3.2</text></g><g><text fill="#595959" font-family="Aptos,Aptos_MSFontService,sans-serif" font-weight="400" font-size="55" transform="matrix(1 0 0 1 597.488 1189)">3.4</text></g><g><text fill="#595959" font-family="Aptos,Aptos_MSFontService,sans-serif" font-weight="400" font-size="55" transform="matrix(1 0 0 1 597.488 1010)">3.6</text></g><g><text fill="#595959" font-family="Aptos,Aptos_MSFontService,sans-serif" font-weight="400" font-size="55" transform="matrix(1 0 0 1 597.488 830)">3.8</text></g><g><text fill="#595959" font-family="Aptos,Aptos_MSFontService,sans-serif" font-weight="400" font-size="55" transform="matrix(1 0 0 1 642.474 651)">4</text></g><g><rect x="1074" y="1924" width="260" height="67" fill="#FFFFFF"/></g><g><text fill="#595959" font-family="Aptos,Aptos_MSFontService,sans-serif" font-weight="400" font-size="55" transform="matrix(1 0 0 1 1074.35 1976)">Preference</text></g><g><rect x="2071" y="1924" width="193" height="67" fill="#FFFFFF"/></g><g><text fill="#595959" font-family="Aptos,Aptos_MSFontService,sans-serif" font-weight="400" font-size="55" transform="matrix(1 0 0 1 2071.44 1976)">Realism</text></g><g><rect x="3022" y="1924" width="218" height="67" fill="#FFFFFF"/></g><g><text fill="#595959" font-family="Aptos,Aptos_MSFontService,sans-serif" font-weight="400" font-size="55" transform="matrix(1 0 0 1 3021.96 1976)">Richness</text></g><g><text fill="#595959" font-family="Aptos,Aptos_MSFontService,sans-serif" font-weight="400" font-size="61" transform="matrix(6.12323e-17 -1 1 6.12323e-17 566.322 1363)">Score </text></g><g><text fill="#595959" font-family="Aptos,Aptos_MSFontService,sans-serif" font-weight="400" font-size="61" transform="matrix(6.12323e-17 -1 1 6.12323e-17 566.322 1199)">↑</text></g><g><rect x="509" y="525" width="29.9999" height="30.0002" fill="#5F79FE"/></g><g><text fill="#595959" font-family="Aptos,Aptos_MSFontService,sans-serif" font-weight="400" font-size="55" transform="matrix(1 0 0 1 552.349 555)">VibeVoice-7B</text></g><g><rect x="923" y="525" width="29.9999" height="30.0002" fill="#B2C7FF"/></g><g><text fill="#595959" font-family="Aptos,Aptos_MSFontService,sans-serif" font-weight="400" font-size="55" transform="matrix(1 0 0 1 966.759 555)">VibeVoice-1.5B</text></g><g><rect x="1383" y="525" width="30.0002" height="30.0002" fill="#EAD6A9"/></g><g><text fill="#595959" font-family="Aptos,Aptos_MSFontService,sans-serif" font-weight="400" font-size="55" transform="matrix(1 0 0 1 1426.15 555)">Gemini-2.5-Pro-Preview-TTS</text></g><g><rect x="2147" y="525" width="30" height="30.0002" fill="#F7EED1"/></g><g><text fill="#595959" font-family="Aptos,Aptos_MSFontService,sans-serif" font-weight="400" font-size="55" transform="matrix(1 0 0 1 2190.48 555)">Eleven-V3(Alpha)</text></g><g><rect x="2649" y="525" width="30" height="30.0002" fill="#C3C3C3"/></g><g><text fill="#595959" font-family="Aptos,Aptos_MSFontService,sans-serif" font-weight="400" font-size="55" transform="matrix(1 0 0 1 2692.29 555)">HiggsAudio-V2</text></g><g><rect x="3093" y="525" width="30" height="30.0002" fill="#EBEBEB"/></g><g><text fill="#595959" font-family="Aptos,Aptos_MSFontService,sans-serif" font-weight="400" font-size="55" transform="matrix(1 0 0 1 3136.4 555)">SesameAILabs-CSM</text></g></g></svg>