<svg width="3091" height="1555" xmlns="http://www.w3.org/2000/svg" xmlns:xlink="http://www.w3.org/1999/xlink" xml:space="preserve" overflow="hidden"><defs><clipPath id="clip0"><rect x="452" y="371" width="3091" height="1555"/></clipPath></defs><g clip-path="url(#clip0)" transform="translate(-452 -371)"><g><rect x="722.5" y="427.5" width="2770" height="1160" stroke="#C3C3C3" stroke-width="3.4375" stroke-linejoin="round" stroke-miterlimit="10" fill="none"/></g><g><path d="M828.027 635.021 925.03 635.021 925.03 1587 828.027 1587ZM1752.06 666.022 1849.06 666.022 1849.06 1587 1752.06 1587ZM2675.09 583.019 2772.09 583.019 2772.09 1587 2675.09 1587Z" fill="#5F79FE"/></g><g><path d="M951.031 893.029 1048.03 893.029 1048.03 1587 951.031 1587ZM1875.06 770.025 1972.06 770.025 1972.06 1587 1875.06 1587ZM2798.09 770.025 2895.1 770.025 2895.1 1587 2798.09 1587Z" fill="#B2C7FF"/></g><g><path d="M1074.04 717.024 1171.04 717.024 1171.04 1587 1074.04 1587ZM1998.07 800.026 2095.07 800.026 2095.07 1587 1998.07 1587ZM2921.1 614.02 3018.1 614.02 3018.1 1587 2921.1 1587Z" fill="#EAD6A9"/></g><g><path d="M1197.04 945.031 1294.04 945.031 1294.04 1587 1197.04 1587ZM2121.07 977.032 2217.07 977.032 2217.07 1587 2121.07 1587ZM3044.1 862.028 3141.1 862.028 3141.1 1587 3044.1 1587Z" fill="#F7EED1"/></g><g><path d="M1320.04 1401.05 1417.05 1401.05 1417.05 1587 1320.04 1587ZM2244.07 1297.04 2340.08 1297.04 2340.08 1587 2244.07 1587ZM3167.1 1100.04 3264.11 1100.04 3264.11 1587 3167.1 1587Z" fill="#C3C3C3"/></g><g><path d="M1443.05 1463.05 1540.05 1463.05 1540.05 1587 1443.05 1587ZM2367.08 1348.04 2463.08 1348.04 2463.08 1587 2367.08 1587ZM3290.11 1235.04 3387.11 1235.04 3387.11 1587 3290.11 1587Z" fill="#EBEBEB"/></g><g><path d="M722.5 1587.5 3492.5 1587.5" stroke="#D9D9D9" stroke-width="3.4375" stroke-linejoin="round" stroke-miterlimit="10" fill="none" fill-rule="evenodd"/></g><g><rect x="1054" y="1621" width="260" height="67" fill="#FFFFFF"/></g><g><rect x="2012" y="1621" width="192" height="67" fill="#FFFFFF"/></g><g><rect x="2922" y="1621" width="218" height="67" fill="#FFFFFF"/></g><g><text fill="#404040" font-family="Aptos,Aptos_MSFontService,sans-serif" font-weight="400" font-size="55" transform="matrix(1 0 0 1 825.036 599)">3.75</text></g><g><text fill="#404040" font-family="Aptos,Aptos_MSFontService,sans-serif" font-weight="400" font-size="55" transform="matrix(1 0 0 1 1733.89 630)">3.712</text></g><g><text fill="#404040" font-family="Aptos,Aptos_MSFontService,sans-serif" font-weight="400" font-size="55" transform="matrix(1 0 0 1 2657.39 548)">3.812</text></g><g><text fill="#404040" font-family="Aptos,Aptos_MSFontService,sans-serif" font-weight="400" font-size="55" transform="matrix(1 0 0 1 933.322 857)">3.438</text></g><g><text fill="#404040" font-family="Aptos,Aptos_MSFontService,sans-serif" font-weight="400" font-size="55" transform="matrix(1 0 0 1 1856.83 734)">3.587</text></g><g><text fill="#404040" font-family="Aptos,Aptos_MSFontService,sans-serif" font-weight="400" font-size="55" transform="matrix(1 0 0 1 2780.34 734)">3.587</text></g><g><text fill="#404040" font-family="Aptos,Aptos_MSFontService,sans-serif" font-weight="400" font-size="55" transform="matrix(1 0 0 1 1070.92 682)">3.65</text></g><g><text fill="#404040" font-family="Aptos,Aptos_MSFontService,sans-serif" font-weight="400" font-size="55" transform="matrix(1 0 0 1 1994.42 765)">3.55</text></g><g><text fill="#404040" font-family="Aptos,Aptos_MSFontService,sans-serif" font-weight="400" font-size="55" transform="matrix(1 0 0 1 2903.28 578)">3.775</text></g><g><text fill="#404040" font-family="Aptos,Aptos_MSFontService,sans-serif" font-weight="400" font-size="55" transform="matrix(1 0 0 1 1179.2 910)">3.375</text></g><g><text fill="#404040" font-family="Aptos,Aptos_MSFontService,sans-serif" font-weight="400" font-size="55" transform="matrix(1 0 0 1 2102.71 941)">3.337</text></g><g><text fill="#404040" font-family="Aptos,Aptos_MSFontService,sans-serif" font-weight="400" font-size="55" transform="matrix(1 0 0 1 3026.22 827)">3.475</text></g><g><text fill="#404040" font-family="Aptos,Aptos_MSFontService,sans-serif" font-weight="400" font-size="55" transform="matrix(1 0 0 1 1302.14 1365)">2.825</text></g><g><text fill="#404040" font-family="Aptos,Aptos_MSFontService,sans-serif" font-weight="400" font-size="55" transform="matrix(1 0 0 1 2240.31 1262)">2.95</text></g><g><text fill="#404040" font-family="Aptos,Aptos_MSFontService,sans-serif" font-weight="400" font-size="55" transform="matrix(1 0 0 1 3149.16 1064)">3.188</text></g><g><text fill="#404040" font-family="Aptos,Aptos_MSFontService,sans-serif" font-weight="400" font-size="55" transform="matrix(1 0 0 1 1439.74 1427)">2.75</text></g><g><text fill="#404040" font-family="Aptos,Aptos_MSFontService,sans-serif" font-weight="400" font-size="55" transform="matrix(1 0 0 1 2348.59 1313)">2.888</text></g><g><text fill="#404040" font-family="Aptos,Aptos_MSFontService,sans-serif" font-weight="400" font-size="55" transform="matrix(1 0 0 1 3272.1 1199)">3.025</text></g><g><text fill="#595959" font-family="Aptos,Aptos_MSFontService,sans-serif" font-weight="400" font-size="55" transform="matrix(1 0 0 1 597.488 1603)">2.6</text></g><g><text fill="#595959" font-family="Aptos,Aptos_MSFontService,sans-serif" font-weight="400" font-size="55" transform="matrix(1 0 0 1 597.488 1437)">2.8</text></g><g><text fill="#595959" font-family="Aptos,Aptos_MSFontService,sans-serif" font-weight="400" font-size="55" transform="matrix(1 0 0 1 642.474 1271)">3</text></g><g><text fill="#595959" font-family="Aptos,Aptos_MSFontService,sans-serif" font-weight="400" font-size="55" transform="matrix(1 0 0 1 597.488 1106)">3.2</text></g><g><text fill="#595959" font-family="Aptos,Aptos_MSFontService,sans-serif" font-weight="400" font-size="55" transform="matrix(1 0 0 1 597.488 940)">3.4</text></g><g><text fill="#595959" font-family="Aptos,Aptos_MSFontService,sans-serif" font-weight="400" font-size="55" transform="matrix(1 0 0 1 597.488 774)">3.6</text></g><g><text fill="#595959" font-family="Aptos,Aptos_MSFontService,sans-serif" font-weight="400" font-size="55" transform="matrix(1 0 0 1 597.488 609)">3.8</text></g><g><text fill="#595959" font-family="Aptos,Aptos_MSFontService,sans-serif" font-weight="400" font-size="55" transform="matrix(1 0 0 1 642.474 443)">4</text></g><g><rect x="1054" y="1621" width="260" height="67" fill="#FFFFFF"/></g><g><text fill="#595959" font-family="Aptos,Aptos_MSFontService,sans-serif" font-weight="400" font-size="55" transform="matrix(1 0 0 1 1054.41 1673)">Preference</text></g><g><rect x="2012" y="1621" width="192" height="67" fill="#FFFFFF"/></g><g><text fill="#595959" font-family="Aptos,Aptos_MSFontService,sans-serif" font-weight="400" font-size="55" transform="matrix(1 0 0 1 2011.63 1673)">Realism</text></g><g><rect x="2922" y="1621" width="218" height="67" fill="#FFFFFF"/></g><g><text fill="#595959" font-family="Aptos,Aptos_MSFontService,sans-serif" font-weight="400" font-size="55" transform="matrix(1 0 0 1 2922.27 1673)">Richness</text></g><g><text fill="#595959" font-family="Aptos,Aptos_MSFontService,sans-serif" font-weight="400" font-size="61" transform="matrix(6.12323e-17 -1 1 6.12323e-17 566.322 1108)">Score </text></g><g><text fill="#595959" font-family="Aptos,Aptos_MSFontService,sans-serif" font-weight="400" font-size="61" transform="matrix(6.12323e-17 -1 1 6.12323e-17 566.322 944)">↑</text></g><g><rect x="930" y="1748" width="30.0002" height="29.9999" fill="#5F79FE"/></g><g><text fill="#595959" font-family="Aptos,Aptos_MSFontService,sans-serif" font-weight="400" font-size="55" transform="matrix(1 0 0 1 973.558 1779)">VibeVoice-7B</text></g><g><rect x="1669" y="1748" width="30.0002" height="29.9999" fill="#B2C7FF"/></g><g><text fill="#595959" font-family="Aptos,Aptos_MSFontService,sans-serif" font-weight="400" font-size="55" transform="matrix(1 0 0 1 1712.16 1779)">VibeVoice-1.5B</text></g><g><rect x="2407" y="1748" width="30" height="29.9999" fill="#EAD6A9"/></g><g><text fill="#595959" font-family="Aptos,Aptos_MSFontService,sans-serif" font-weight="400" font-size="55" transform="matrix(1 0 0 1 2450.76 1779)">Gemini-2.5-Pro-Preview-TTS</text></g><g><rect x="930" y="1839" width="30.0002" height="29.9999" fill="#F7EED1"/></g><g><text fill="#595959" font-family="Aptos,Aptos_MSFontService,sans-serif" font-weight="400" font-size="55" transform="matrix(1 0 0 1 973.558 1869)">Eleven-V3(Alpha)</text></g><g><rect x="1669" y="1839" width="30.0002" height="29.9999" fill="#C3C3C3"/></g><g><text fill="#595959" font-family="Aptos,Aptos_MSFontService,sans-serif" font-weight="400" font-size="55" transform="matrix(1 0 0 1 1712.16 1869)">HiggsAudio-V2</text></g><g><rect x="2407" y="1839" width="30" height="29.9999" fill="#EBEBEB"/></g><g><text fill="#595959" font-family="Aptos,Aptos_MSFontService,sans-serif" font-weight="400" font-size="55" transform="matrix(1 0 0 1 2450.76 1869)">SesameAILabs-CSM</text></g></g></svg>