<svg width="1748" height="1555" xmlns="http://www.w3.org/2000/svg" xmlns:xlink="http://www.w3.org/1999/xlink" xml:space="preserve" overflow="hidden"><defs><clipPath id="clip0"><rect x="452" y="330" width="1748" height="1555"/></clipPath></defs><g clip-path="url(#clip0)" transform="translate(-452 -330)"><g><rect x="722.5" y="688.5" width="1427" height="1066" stroke="#C3C3C3" stroke-width="3.4375" stroke-linejoin="round" stroke-miterlimit="10" fill="none"/></g><g><path d="M886.029 879.029 1036.03 879.029 1036.03 1754 886.029 1754Z" fill="#5F79FE"/></g><g><path d="M1076.04 1116.04 1226.04 1116.04 1226.04 1754 1076.04 1754Z" fill="#B2C7FF"/></g><g><path d="M1266.04 955.031 1416.05 955.031 1416.05 1754 1266.04 1754Z" fill="#EAD6A9"/></g><g><path d="M1456.05 1164.04 1606.05 1164.04 1606.05 1754 1456.05 1754Z" fill="#F7EED1"/></g><g><path d="M1646.05 1583.05 1796.06 1583.05 1796.06 1754 1646.05 1754Z" fill="#C3C3C3"/></g><g><path d="M1836.06 1640.05 1986.07 1640.05 1986.07 1754 1836.06 1754Z" fill="#EBEBEB"/></g><g><path d="M722.5 1754.5 2149.5 1754.5" stroke="#D9D9D9" stroke-width="3.4375" stroke-linejoin="round" stroke-miterlimit="10" fill="none" fill-rule="evenodd"/></g><g><rect x="1306" y="1788" width="260" height="67" fill="#FFFFFF"/></g><g><text fill="#404040" font-family="Aptos,Aptos_MSFontService,sans-serif" font-weight="400" font-size="55" transform="matrix(1 0 0 1 909.24 843)">3.75</text></g><g><text fill="#404040" font-family="Aptos,Aptos_MSFontService,sans-serif" font-weight="400" font-size="55" transform="matrix(1 0 0 1 1084.57 1081)">3.438</text></g><g><text fill="#404040" font-family="Aptos,Aptos_MSFontService,sans-serif" font-weight="400" font-size="55" transform="matrix(1 0 0 1 1289.21 919)">3.65</text></g><g><text fill="#404040" font-family="Aptos,Aptos_MSFontService,sans-serif" font-weight="400" font-size="55" transform="matrix(1 0 0 1 1464.55 1128)">3.375</text></g><g><text fill="#404040" font-family="Aptos,Aptos_MSFontService,sans-serif" font-weight="400" font-size="55" transform="matrix(1 0 0 1 1654.53 1547)">2.825</text></g><g><text fill="#404040" font-family="Aptos,Aptos_MSFontService,sans-serif" font-weight="400" font-size="55" transform="matrix(1 0 0 1 1859.17 1604)">2.75</text></g><g><text fill="#595959" font-family="Aptos,Aptos_MSFontService,sans-serif" font-weight="400" font-size="55" transform="matrix(1 0 0 1 597.488 1770)">2.6</text></g><g><text fill="#595959" font-family="Aptos,Aptos_MSFontService,sans-serif" font-weight="400" font-size="55" transform="matrix(1 0 0 1 597.488 1617)">2.8</text></g><g><text fill="#595959" font-family="Aptos,Aptos_MSFontService,sans-serif" font-weight="400" font-size="55" transform="matrix(1 0 0 1 642.474 1465)">3</text></g><g><text fill="#595959" font-family="Aptos,Aptos_MSFontService,sans-serif" font-weight="400" font-size="55" transform="matrix(1 0 0 1 597.488 1313)">3.2</text></g><g><text fill="#595959" font-family="Aptos,Aptos_MSFontService,sans-serif" font-weight="400" font-size="55" transform="matrix(1 0 0 1 597.488 1161)">3.4</text></g><g><text fill="#595959" font-family="Aptos,Aptos_MSFontService,sans-serif" font-weight="400" font-size="55" transform="matrix(1 0 0 1 597.488 1008)">3.6</text></g><g><text fill="#595959" font-family="Aptos,Aptos_MSFontService,sans-serif" font-weight="400" font-size="55" transform="matrix(1 0 0 1 597.488 856)">3.8</text></g><g><text fill="#595959" font-family="Aptos,Aptos_MSFontService,sans-serif" font-weight="400" font-size="55" transform="matrix(1 0 0 1 642.474 704)">4</text></g><g><rect x="1306" y="1788" width="260" height="67" fill="#FFFFFF"/></g><g><text fill="#595959" font-family="Aptos,Aptos_MSFontService,sans-serif" font-weight="400" font-size="55" transform="matrix(1 0 0 1 1306.23 1840)">Preference</text></g><g><text fill="#595959" font-family="Aptos,Aptos_MSFontService,sans-serif" font-weight="400" font-size="61" transform="matrix(6.12323e-17 -1 1 6.12323e-17 566.322 1322)">Score </text></g><g><text fill="#595959" font-family="Aptos,Aptos_MSFontService,sans-serif" font-weight="400" font-size="61" transform="matrix(6.12323e-17 -1 1 6.12323e-17 566.322 1157)">↑</text></g><g><rect x="1124" y="377" width="29.9999" height="29.9999" fill="#5F79FE"/></g><g><text fill="#595959" font-family="Aptos,Aptos_MSFontService,sans-serif" font-weight="400" font-size="55" transform="matrix(1 0 0 1 1167.83 407)">VibeVoice-7B</text></g><g><rect x="1124" y="445" width="29.9999" height="29.9999" fill="#B2C7FF"/></g><g><text fill="#595959" font-family="Aptos,Aptos_MSFontService,sans-serif" font-weight="400" font-size="55" transform="matrix(1 0 0 1 1167.83 476)">VibeVoice-1.5B</text></g><g><rect x="1124" y="514" width="29.9999" height="30.0002" fill="#EAD6A9"/></g><g><text fill="#595959" font-family="Aptos,Aptos_MSFontService,sans-serif" font-weight="400" font-size="55" transform="matrix(1 0 0 1 1167.83 544)">Gemini-2.5-Pro-Preview-TTS</text></g><g><rect x="1124" y="583" width="29.9999" height="29.9999" fill="#F7EED1"/></g><g><text fill="#595959" font-family="Aptos,Aptos_MSFontService,sans-serif" font-weight="400" font-size="55" transform="matrix(1 0 0 1 1167.83 613)">Eleven-V3(Alpha)</text></g></g></svg>