<svg width="1932" height="1811" xmlns="http://www.w3.org/2000/svg" xmlns:xlink="http://www.w3.org/1999/xlink" xml:space="preserve" overflow="hidden"><defs><clipPath id="clip0"><rect x="452" y="330" width="1932" height="1811"/></clipPath></defs><g clip-path="url(#clip0)" transform="translate(-452 -330)"><g><rect x="722.5" y="688.5" width="1611" height="1321" stroke="#C3C3C3" stroke-width="3.4375" stroke-linejoin="round" stroke-miterlimit="10" fill="none"/></g><g><path d="M907.03 924.03 1076.04 924.03 1076.04 2010 907.03 2010Z" fill="#5F79FE"/></g><g><path d="M1122.04 1219.04 1291.04 1219.04 1291.04 2010 1122.04 2010Z" fill="#B2C7FF"/></g><g><path d="M1336.04 1019.03 1505.05 1019.03 1505.05 2010 1336.04 2010Z" fill="#EAD6A9"/></g><g><path d="M1551.05 1278.04 1720.06 1278.04 1720.06 2010 1551.05 2010Z" fill="#F7EED1"/></g><g><path d="M1765.06 1797.06 1934.06 1797.06 1934.06 2010 1765.06 2010Z" fill="#C3C3C3"/></g><g><path d="M1980.06 1868.06 2149.07 1868.06 2149.07 2010 1980.06 2010Z" fill="#EBEBEB"/></g><g><path d="M722.5 2009.5 2333.5 2009.5" stroke="#D9D9D9" stroke-width="3.4375" stroke-linejoin="round" stroke-miterlimit="10" fill="none" fill-rule="evenodd"/></g><g><rect x="1398" y="2044" width="260" height="67.0001" fill="#FFFFFF"/></g><g><text fill="#404040" font-family="Aptos,Aptos_MSFontService,sans-serif" font-weight="400" font-size="55" transform="matrix(1 0 0 1 940.045 889)">3.75</text></g><g><text fill="#404040" font-family="Aptos,Aptos_MSFontService,sans-serif" font-weight="400" font-size="55" transform="matrix(1 0 0 1 1139.9 1183)">3.438</text></g><g><text fill="#404040" font-family="Aptos,Aptos_MSFontService,sans-serif" font-weight="400" font-size="55" transform="matrix(1 0 0 1 1369.07 983)">3.65</text></g><g><text fill="#404040" font-family="Aptos,Aptos_MSFontService,sans-serif" font-weight="400" font-size="55" transform="matrix(1 0 0 1 1568.93 1243)">3.375</text></g><g><text fill="#404040" font-family="Aptos,Aptos_MSFontService,sans-serif" font-weight="400" font-size="55" transform="matrix(1 0 0 1 1783.45 1762)">2.825</text></g><g><text fill="#404040" font-family="Aptos,Aptos_MSFontService,sans-serif" font-weight="400" font-size="55" transform="matrix(1 0 0 1 2012.62 1833)">2.75</text></g><g><text fill="#595959" font-family="Aptos,Aptos_MSFontService,sans-serif" font-weight="400" font-size="55" transform="matrix(1 0 0 1 597.488 2025)">2.6</text></g><g><text fill="#595959" font-family="Aptos,Aptos_MSFontService,sans-serif" font-weight="400" font-size="55" transform="matrix(1 0 0 1 597.488 1836)">2.8</text></g><g><text fill="#595959" font-family="Aptos,Aptos_MSFontService,sans-serif" font-weight="400" font-size="55" transform="matrix(1 0 0 1 642.474 1648)">3</text></g><g><text fill="#595959" font-family="Aptos,Aptos_MSFontService,sans-serif" font-weight="400" font-size="55" transform="matrix(1 0 0 1 597.488 1459)">3.2</text></g><g><text fill="#595959" font-family="Aptos,Aptos_MSFontService,sans-serif" font-weight="400" font-size="55" transform="matrix(1 0 0 1 597.488 1270)">3.4</text></g><g><text fill="#595959" font-family="Aptos,Aptos_MSFontService,sans-serif" font-weight="400" font-size="55" transform="matrix(1 0 0 1 597.488 1081)">3.6</text></g><g><text fill="#595959" font-family="Aptos,Aptos_MSFontService,sans-serif" font-weight="400" font-size="55" transform="matrix(1 0 0 1 597.488 893)">3.8</text></g><g><text fill="#595959" font-family="Aptos,Aptos_MSFontService,sans-serif" font-weight="400" font-size="55" transform="matrix(1 0 0 1 642.474 704)">4</text></g><g><rect x="1398" y="2044" width="260" height="67.0001" fill="#FFFFFF"/></g><g><text fill="#595959" font-family="Aptos,Aptos_MSFontService,sans-serif" font-weight="400" font-size="55" transform="matrix(1 0 0 1 1398.36 2096)">Preference</text></g><g><text fill="#595959" font-family="Aptos,Aptos_MSFontService,sans-serif" font-weight="400" font-size="61" transform="matrix(6.12323e-17 -1 1 6.12323e-17 566.322 1449)">Score </text></g><g><text fill="#595959" font-family="Aptos,Aptos_MSFontService,sans-serif" font-weight="400" font-size="61" transform="matrix(6.12323e-17 -1 1 6.12323e-17 566.322 1285)">↑</text></g><g><rect x="750" y="393" width="29.9999" height="30.0003" fill="#5F79FE"/></g><g><text fill="#595959" font-family="Aptos,Aptos_MSFontService,sans-serif" font-weight="400" font-size="55" transform="matrix(1 0 0 1 793.792 423)">VibeVoice-7B</text></g><g><rect x="1564" y="393" width="29.9999" height="30.0003" fill="#B2C7FF"/></g><g><text fill="#595959" font-family="Aptos,Aptos_MSFontService,sans-serif" font-weight="400" font-size="55" transform="matrix(1 0 0 1 1607.21 423)">VibeVoice-1.5B</text></g><g><rect x="750" y="484" width="29.9999" height="29.9999" fill="#EAD6A9"/></g><g><text fill="#595959" font-family="Aptos,Aptos_MSFontService,sans-serif" font-weight="400" font-size="55" transform="matrix(1 0 0 1 793.792 515)">Gemini-2.5-Pro-Preview-TTS</text></g><g><rect x="1564" y="484" width="29.9999" height="29.9999" fill="#F7EED1"/></g><g><text fill="#595959" font-family="Aptos,Aptos_MSFontService,sans-serif" font-weight="400" font-size="55" transform="matrix(1 0 0 1 1607.21 515)">Eleven-V3(Alpha)</text></g><g><rect x="750" y="576" width="29.9999" height="29.9999" fill="#C3C3C3"/></g><g><text fill="#595959" font-family="Aptos,Aptos_MSFontService,sans-serif" font-weight="400" font-size="55" transform="matrix(1 0 0 1 793.792 606)">HiggsAudio-V2</text></g><g><rect x="1564" y="576" width="29.9999" height="29.9999" fill="#EBEBEB"/></g><g><text fill="#595959" font-family="Aptos,Aptos_MSFontService,sans-serif" font-weight="400" font-size="55" transform="matrix(1 0 0 1 1607.21 606)">SesameAILabs-CSM</text></g></g></svg>